# xmcd CD database file
# Copyright (C) 1993-1998 Ti Kan
#
# Track frame offsets:
#	150
#	18895
#	38535
#	59277
#	80150
#	101525
#	128662
#	153307
#	178325
#	212442
#
# Disc length: 3007 seconds
#
# Revision: 0
# Processed by: cddbd v1.4b41PL1 Copyright (c) Steve Scherf et al.
# Submitted via: CDmax 1.5
#
DISCID=780bbd0a
DTITLE=Eric Clapton - For Ever Man
DYEAR=1900
DGENRE=
TTITLE0=Motherless Children
TTITLE1=Tangled In Love
TTITLE2=Blues Power
TTITLE3=Lay Down Sally
TTITLE4=Wonderful Tonight
TTITLE5=Badge
TTITLE6=Let It Rain
TTITLE7=She's Waiting
TTITLE8=Layla
TTITLE9=Forever Man
EXTD=Recored live in the Richond Coliseum Apr. 22 1985\nEric Clapton and Band\nE
EXTD=ric Clapton:\tlead vocals and lead guitar\nTim Renwick\trhythm and lead uitar
EXTD=, vocals\nDunald Dunn\tbass\nJamie Oldacker\tdrums\nChris Stainton\tkeybo
EXTD=ards\nMarcy Levy\tbacking vocals\nShaun Murphy\tbacking vocals
EXTT0=
EXTT1=
EXTT2=
EXTT3=
EXTT4=
EXTT5=
EXTT6=
EXTT7=
EXTT8=
EXTT9=
PLAYORDER=
